<?xml version="1.0" encoding="UTF-8" standalone="no"?>
<!-- Generator: Adobe Illustrator 17.0.1, SVG Export Plug-In . SVG Version: 6.00 Build 0)  -->

<svg
   version="1.1"
   x="0px"
   y="0px"
   width="86px"
   height="86px"
   viewBox="0 0 86 86"
   enable-background="new 0 0 86 86"
   xml:space="preserve"
   id="svg19"
   sodipodi:docname="harbour-weight-tracker.svg"
   inkscape:version="1.1.2 (b8e25be833, 2022-02-05)"
   xmlns:inkscape="http://www.inkscape.org/namespaces/inkscape"
   xmlns:sodipodi="http://sodipodi.sourceforge.net/DTD/sodipodi-0.dtd"
   xmlns="http://www.w3.org/2000/svg"
   xmlns:svg="http://www.w3.org/2000/svg"><defs
   id="defs23"><linearGradient
     id="SVGID_1_-9"
     gradientUnits="userSpaceOnUse"
     x1="586.48328"
     y1="1001.3088"
     x2="1413.5167"
     y2="1001.3088"
     gradientTransform="matrix(0.07450173,0,0,0.07450173,-30.639232,-31.447874)"><stop
       offset="0"
       style="stop-color:#E85D7E"
       id="stop4" /><stop
       offset="1"
       style="stop-color:#D13A55"
       id="stop6" /></linearGradient><linearGradient
     id="SVGID_2_"
     gradientUnits="userSpaceOnUse"
     x1="785.13422"
     y1="741.16931"
     x2="1214.8657"
     y2="741.16931"
     gradientTransform="matrix(0.07450173,0,0,0.07450173,-30.639232,-31.447874)"><stop
       offset="0"
       style="stop-color:#50C29F"
       id="stop11" /><stop
       offset="1"
       style="stop-color:#35A49C"
       id="stop13" /></linearGradient></defs><sodipodi:namedview
   id="namedview21"
   pagecolor="#ffffff"
   bordercolor="#666666"
   borderopacity="1.0"
   inkscape:pageshadow="2"
   inkscape:pageopacity="0.0"
   inkscape:pagecheckerboard="0"
   showgrid="false"
   inkscape:zoom="5.0755814"
   inkscape:cx="-53.786942"
   inkscape:cy="70.632302"
   inkscape:window-width="2560"
   inkscape:window-height="1351"
   inkscape:window-x="-9"
   inkscape:window-y="-9"
   inkscape:window-maximized="1"
   inkscape:current-layer="svg19"
   showborder="false" />
<g
   id="Layer_2"
   display="none">
</g>

<path
   class="st0"
   d="m 27.616479,76.139535 h -50.059191 c -5.24303,0 -9.500895,-3.528748 -9.500895,-7.889419 V 14.70192 c 0,-4.353743 4.249522,-7.8894192 9.500895,-7.8894192 h 50.050834 c 5.243029,0 9.500896,3.5287482 9.500896,7.8894192 v 53.555136 c 0,4.353731 -4.249523,7.882479 -9.492539,7.882479 z"
   id="path9"
   style="fill:#ff2a2a;stroke-width:0.0760786"
   inkscape:export-filename="D:\Workspace\SailfishOS-Apps\Icons\harbour-weight-tracker.png"
   inkscape:export-xdpi="115.65"
   inkscape:export-ydpi="115.65" /><path
   class="st1"
   d="m 2.5868846,31.174029 c 3.7235462,0 7.2550741,0.658606 10.4442984,1.851023 L 20.528379,19.984644 C 15.919865,16.199388 9.5831485,13.863067 2.5868846,13.863067 c -6.996264,0 -13.3246246,2.336321 -17.9414946,6.121577 l 7.4971958,13.040408 c 3.1892247,-1.192417 6.7207526,-1.851023 10.4442988,-1.851023 z"
   id="path16-7"
   style="fill:#ffff00;stroke-width:0.0760786"
   inkscape:export-filename="D:\Workspace\SailfishOS-Apps\Icons\harbour-weight-tracker.png"
   inkscape:export-xdpi="115.65"
   inkscape:export-ydpi="115.65" /><g
   id="g34"
   transform="matrix(0.08348764,0,0,0.06932703,-80.900749,-27.941135)"
   inkscape:export-filename="D:\Workspace\SailfishOS-Apps\Icons\harbour-weight-tracker.png"
   inkscape:export-xdpi="115.65"
   inkscape:export-ydpi="115.65"><g
     id="g20"><path
       class="st14"
       d="M 1299.8,1515.3 H 700.2 c -70.5,0 -127.8,-57.3 -127.8,-127.8 V 615.1 c 0,-70.5 57.3,-127.8 127.8,-127.8 h 599.5 c 70.5,0 127.8,57.3 127.8,127.8 v 772.5 c 0,70.4 -57.3,127.7 -127.7,127.7 z M 700.2,515.3 c -55,0 -99.8,44.8 -99.8,99.8 v 772.5 c 0,55 44.8,99.8 99.8,99.8 h 599.5 c 55,0 99.8,-44.8 99.8,-99.8 V 615.1 c 0,-55 -44.8,-99.8 -99.8,-99.8 H 700.2 Z"
       id="path18"
       style="fill:#000080" /></g><g
     id="g24"><path
       class="st14"
       d="m 1125.1,893.3 c -1.9,0 -3.9,-0.4 -5.7,-1.2 -37.6,-16.9 -77.8,-25.5 -119.3,-25.5 -41.6,0 -81.7,8.6 -119.3,25.5 -6.9,3.1 -15.1,0.1 -18.4,-6.7 L 772.6,697.3 c -2.6,-5.4 -1.4,-11.8 2.8,-16 60.2,-59.5 140,-92.3 224.7,-92.3 84.7,0 164.5,32.8 224.7,92.3 4.2,4.2 5.4,10.6 2.8,16 l -89.8,188.1 c -2.5,5 -7.5,7.9 -12.7,7.9 z M 1000,838.7 c 40.9,0 80.6,7.6 118.2,22.6 l 79.7,-166.8 c -54,-50 -123.9,-77.4 -197.9,-77.4 -74,0 -143.8,27.4 -197.9,77.4 l 79.7,166.8 c 37.6,-15.1 77.3,-22.6 118.2,-22.6 z"
       id="path22" /></g><g
     id="g28"><path
       class="st14"
       d="m 1000,1515.3 c -7.7,0 -14,-6.3 -14,-14 V 1350 c 0,-7.7 6.3,-14 14,-14 7.7,0 14,6.3 14,14 v 151.3 c 0,7.7 -6.3,14 -14,14 z"
       id="path26" /></g><g
     id="g32"><path
       class="st14"
       d="m 1000,854.3 c -2.2,0 -4.5,-0.5 -6.5,-1.6 -6.8,-3.6 -9.4,-12.1 -5.8,-18.9 L 1052,712.7 c 3.6,-6.8 12.1,-9.4 18.9,-5.8 6.8,3.6 9.4,12.1 5.8,18.9 l -64.3,121.1 c -2.5,4.7 -7.4,7.4 -12.4,7.4 z"
       id="path30" /></g></g></svg>
